<svg xmlns="http://www.w3.org/2000/svg" viewBox="0 0 240 280">
  <defs>
    <linearGradient id="g" x1="0" y1="0" x2="1" y2="1">
      <stop offset="0%" stop-color="#ffe9a3"/>
      <stop offset="50%" stop-color="#f4cf73"/>
      <stop offset="100%" stop-color="#c89934"/>
    </linearGradient>
    <linearGradient id="c" x1="0" y1="0" x2="0" y2="1">
      <stop offset="0%" stop-color="#b13838"/>
      <stop offset="100%" stop-color="#6d1818"/>
    </linearGradient>
    <radialGradient id="bg" cx="50%" cy="40%" r="60%">
      <stop offset="0%" stop-color="#1f2542"/>
      <stop offset="100%" stop-color="#13172a"/>
    </radialGradient>
  </defs>
  <rect width="240" height="280" fill="url(#bg)"/>
  <path d="M 30 70 L 210 70 L 210 170 Q 210 215 120 260 Q 30 215 30 170 Z" fill="url(#c)" stroke="url(#g)" stroke-width="6"/>
  <g transform="translate(120, 155)" fill="#fff5d8">
    <path d="M 0 -55 Q -18 -30 -10 -8 Q 0 -26 10 -8 Q 18 -30 0 -55 Z"/>
    <path d="M -52 3 Q -52 32 -25 46 Q -32 21 -16 14 Q -40 5 -52 3 Z"/>
    <path d="M 52 3 Q 52 32 25 46 Q 32 21 16 14 Q 40 5 52 3 Z"/>
    <path d="M 0 8 L 12 32 L 0 55 L -12 32 Z" fill="url(#g)"/>
  </g>
</svg>
